<?xml version="1.0" encoding="utf-8"?>
<!-- Generator: Adobe Illustrator 17.0.2, SVG Export Plug-In . SVG Version: 6.00 Build 0)  -->
<!DOCTYPE svg PUBLIC "-//W3C//DTD SVG 1.1//EN" "http://www.w3.org/Graphics/SVG/1.1/DTD/svg11.dtd">
<svg version="1.1" id="Layer_1" xmlns="http://www.w3.org/2000/svg" xmlns:xlink="http://www.w3.org/1999/xlink" x="0px" y="0px"
	 width="360px" height="360px" viewBox="0 0 360 360" enable-background="new 0 0 360 360" xml:space="preserve">
<path fill="#303B46" enable-background="new    " d="M352.945,174.964c0,96.021-77.843,173.862-173.862,173.862
	c-96.025,0-173.865-77.842-173.865-173.862C5.218,78.942,83.058,1.1,179.083,1.1C275.103,1.1,352.945,78.942,352.945,174.964z"/>
<g>
	<path fill="#FFFFFF" d="M265.38,98.745c7.927,0,14.938,3.643,19.68,9.256l3.045-3.043c-5.542-6.393-13.616-10.53-22.725-10.53
		H98.562c-8.008,0-15.257,3.187-20.665,8.287l3.041,3.046c4.628-4.319,10.796-7.016,17.625-7.016H265.38z"/>
	<path fill="#FFFFFF" d="M72.673,229.623V124.63c0-4.319,1.155-8.329,3.028-11.913l-3.163-3.155
		c-2.583,4.451-4.179,9.559-4.179,15.067v104.993c0,5.131,1.4,9.893,3.673,14.121l3.155-3.158
		C73.62,237.248,72.673,233.555,72.673,229.623"/>
	<path fill="#FFFFFF" d="M291.265,124.63v104.993c0,3.555-0.715,6.941-2.02,10.023l3.166,3.168
		c1.964-4.002,3.168-8.436,3.168-13.191V124.63c0-4.375-0.983-8.513-2.665-12.28l-3.335,3.337
		C290.616,118.48,291.265,121.471,291.265,124.63"/>
	<path fill="#FFFFFF" d="M265.38,255.508H98.562c-7.208,0-13.706-2.949-18.404-7.695l-3.036,3.041
		c5.477,5.533,13.061,8.969,21.44,8.969H265.38c8.739,0,16.559-3.793,22.088-9.748l-3.045-3.045
		C279.69,252.201,272.945,255.508,265.38,255.508"/>
	<path fill="#FFFFFF" d="M98.562,103.06H265.38c6.722,0,12.664,3.16,16.629,8l3.051-3.059c-4.741-5.618-11.753-9.256-19.68-9.256
		H98.562c-6.829,0-12.996,2.697-17.625,7.016l3.065,3.055C87.844,105.274,92.934,103.06,98.562,103.06"/>
	<path fill="#FFFFFF" d="M286.95,124.63v104.993c0,2.314-0.461,4.498-1.134,6.586l3.429,3.438c1.305-3.082,2.02-6.469,2.02-10.023
		V124.63c0-3.159-0.648-6.15-1.686-8.943l-3.428,3.434C286.625,120.89,286.95,122.71,286.95,124.63"/>
	<path fill="#FFFFFF" d="M98.562,255.508H265.38c7.565,0,14.311-3.307,19.043-8.479l-3.056-3.057
		c-3.951,4.395-9.625,7.221-15.987,7.221H98.562c-6,0-11.425-2.471-15.338-6.441l-3.066,3.061
		C84.856,252.559,91.354,255.508,98.562,255.508"/>
	<path fill="#FFFFFF" d="M76.987,229.623V124.63c0-3.113,0.69-6.06,1.885-8.736l-3.171-3.176c-1.873,3.584-3.028,7.594-3.028,11.913
		v104.993c0,3.932,0.947,7.625,2.514,10.963l3.277-3.27C77.542,234.912,76.987,232.336,76.987,229.623"/>
	<path fill="#FFFFFF" d="M227.438,177.833l-6.103,6.1l60.032,60.039c1.996-2.227,3.506-4.857,4.449-7.764L227.438,177.833z"/>
	<path fill="#FFFFFF" d="M139.378,176.399l-60.914,60.917c1.078,2.797,2.677,5.342,4.76,7.436L145.48,182.5L139.378,176.399z"/>
	<path fill="#FFFFFF" d="M80.158,247.812c-2.057-2.08-3.71-4.543-4.971-7.227l-3.155,3.158c1.383,2.604,3.037,5.041,5.09,7.109
		L80.158,247.812z"/>
	<path fill="#FFFFFF" d="M284.423,247.029l3.045,3.045c1.985-2.156,3.638-4.592,4.948-7.26l-3.171-3.168
		C288.09,242.406,286.404,244.855,284.423,247.029"/>
	<path fill="#FFFFFF" d="M78.464,237.316l-3.277,3.27c1.261,2.684,2.914,5.146,4.971,7.227l3.066-3.061
		C81.142,242.658,79.542,240.113,78.464,237.316"/>
	<path fill="#FFFFFF" d="M281.367,243.973l3.056,3.057c1.981-2.174,3.667-4.623,4.822-7.383l-3.429-3.438
		C284.873,239.115,283.363,241.746,281.367,243.973"/>
	<path fill="#FFFFFF" d="M227.438,177.833l58.714-58.712c-0.8-3.004-2.221-5.725-4.143-8.061l-60.674,60.671L227.438,177.833z"/>
	<path fill="#FFFFFF" d="M145.48,170.297l-61.477-61.48c-2.163,1.989-3.922,4.365-5.131,7.078l60.506,60.505L145.48,170.297z"/>
	<path fill="#FFFFFF" d="M187.174,205.896c-1.633,1.629-4.466,1.629-6.103,0l-29.493-29.498l-6.098,6.101l29.489,29.49
		c2.449,2.445,5.698,3.795,9.15,3.795s6.709-1.35,9.156-3.795l28.06-28.057l-6.102-6.102L187.174,205.896z"/>
	<path fill="#FFFFFF" d="M285.06,108.001c1.923,2.271,3.471,4.84,4.52,7.686l3.335-3.337c-1.212-2.713-2.886-5.167-4.81-7.392
		L285.06,108.001z"/>
	<path fill="#FFFFFF" d="M80.938,105.761l-3.041-3.046c-2.114,1.998-3.886,4.319-5.359,6.848l3.163,3.155
		C77.064,110.113,78.807,107.752,80.938,105.761"/>
	<path fill="#FFFFFF" d="M84.003,108.816l-3.061-3.053c-2.135,1.989-3.877,4.352-5.241,6.955l3.171,3.176
		C80.081,113.181,81.84,110.805,84.003,108.816"/>
	<path fill="#FFFFFF" d="M286.151,119.122l3.428-3.434c-1.049-2.846-2.597-5.415-4.52-7.686l-3.051,3.059
		C283.931,113.397,285.352,116.117,286.151,119.122"/>
	
		<rect x="217.015" y="173.522" transform="matrix(0.7072 0.707 -0.707 0.7072 190.5352 -104.4121)" fill="#FFFFFF" width="8.628" height="8.629"/>
	
		<rect x="141.163" y="172.084" transform="matrix(-0.7071 0.7071 -0.7071 -0.7071 373.0786 198.2622)" fill="#FFFFFF" width="8.63" height="8.629"/>
</g>
</svg>
