<?xml version="1.0" encoding="utf-8"?>
<!-- Generator: Adobe Illustrator 17.0.2, SVG Export Plug-In . SVG Version: 6.00 Build 0)  -->
<!DOCTYPE svg PUBLIC "-//W3C//DTD SVG 1.1//EN" "http://www.w3.org/Graphics/SVG/1.1/DTD/svg11.dtd">
<svg version="1.1" id="Layer_1" xmlns="http://www.w3.org/2000/svg" xmlns:xlink="http://www.w3.org/1999/xlink" x="0px" y="0px"
	 width="293px" height="142px" viewBox="0 0 293 142" enable-background="new 0 0 293 142" xml:space="preserve">
<g>
	<path fill="#81869D" d="M15.962,6.61V7.61c0,0.281-0.219,0.5-0.5,0.5h-1.405v12.962c0,0.25-0.219,0.5-0.5,0.5h-0.999
		c-0.281,0-0.5-0.25-0.5-0.5V8.11h-1.406c-0.281,0-0.5-0.219-0.5-0.5V6.61c0-0.281,0.219-0.5,0.5-0.5h4.81
		C15.743,6.111,15.962,6.329,15.962,6.61z"/>
	<path fill="#81869D" d="M25.425,6.61v14.461c0,0.281-0.219,0.5-0.5,0.5h-0.999c-0.25,0-0.5-0.219-0.5-0.5v-6.247h-3.185v6.247
		c0,0.281-0.219,0.5-0.5,0.5h-0.999c-0.281,0-0.5-0.219-0.5-0.5V6.61c0-0.281,0.219-0.5,0.5-0.5h0.999c0.281,0,0.5,0.219,0.5,0.5
		v6.215h3.185V6.61c0-0.281,0.25-0.5,0.5-0.5h0.999C25.207,6.111,25.425,6.329,25.425,6.61z"/>
	<path fill="#81869D" d="M30.017,8.11v4.716h2.717c0.281,0,0.5,0.219,0.5,0.5v0.999c0,0.281-0.219,0.5-0.5,0.5h-2.717v4.748h2.717
		c0.281,0,0.5,0.219,0.5,0.5v1c0,0.281-0.219,0.5-0.5,0.5h-3.717c-0.562,0-0.999-0.468-0.999-0.999V7.11
		c0-0.562,0.437-0.999,0.999-0.999h3.717c0.281,0,0.5,0.219,0.5,0.5V7.61c0,0.281-0.219,0.5-0.5,0.5H30.017z"/>
</g>
<g>
	<path fill="#81869D" d="M52.399,33.249c-2.076,0-4.422-0.18-6.768-0.361c0.271,0.451,0.271,1.263,0.09,1.804
		C39.224,60.681,36.337,74.217,33.9,86.038c-0.361,1.625-1.714,2.347-3.068,2.347c-1.805,0-3.79-1.263-3.79-3.519
		c0-2.888,3.97-27.703,9.836-48.999c0.451-1.534,1.624-2.707,3.249-3.429c-2.707-0.27-5.414-0.361-8.122-0.361
		c-2.527,0-4.963,0.361-7.399,0.361c-1.083,0-1.534-0.632-1.534-1.444c0-2.076,2.346-5.504,4.331-5.775
		c2.436-0.361,5.053-0.451,7.761-0.451c4.692,0,9.565,0.361,14.077,0.361c2.797,0,5.504-0.542,7.851-0.542
		c1.534,0,2.256,1.805,2.256,3.79c0,2.076-0.812,4.241-2.527,4.512C55.467,33.159,53.933,33.249,52.399,33.249z"/>
	<path fill="#81869D" d="M73.964,51.928c0,8.663-6.497,20.845-16.062,20.845c-1.083,0-2.256-0.18-3.429-0.542
		c0,3.971,0.361,10.828,5.955,10.828c8.573,0,13.175-9.745,15.521-13.445c0.542-0.902,0.993-1.263,1.444-1.263
		c0.361,0,0.632,0.361,0.632,0.902c0,0.361-0.09,0.812-0.271,1.263C73.693,80.624,67.377,88.565,57,88.565
		c-7.761,0-10.919-7.039-10.919-15.611c0-13.445,7.76-30.861,17.235-30.861c1.985,0,4.061,0.632,5.144,1.534
		C72.25,44.077,73.964,47.507,73.964,51.928z M55.375,69.885c5.324,0,12.994-14.258,12.994-21.296c0-1.444-0.18-2.978-1.534-2.978
		c-5.143,0-11.099,13.355-12.182,24.184C54.924,69.885,55.104,69.885,55.375,69.885z"/>
	<path fill="#81869D" d="M99.59,80.894c0,1.354,0.451,2.256,1.263,2.256c1.895,0,4.692-4.782,8.934-13.535
		c0.451-0.993,1.173-1.534,1.624-1.534c0.271,0,0.542,0.271,0.542,0.903c0,0.361-0.09,0.902-0.361,1.534
		c-1.263,3.158-6.948,17.957-13.897,17.957c-2.797,0-6.136-1.534-6.136-8.302c0-0.451,0-1.083,0.09-1.714
		c-2.978,6.136-6.407,10.016-9.295,10.016c-4.873,0-6.949-5.234-6.949-12.272c0-13.716,7.941-34.11,18.318-34.11
		c3.609,0,5.866,3.88,6.046,6.678h0.542c2.256,0,4.963,1.895,4.963,5.234c0,0.451,0,0.902-0.09,1.354
		C102.748,66.818,99.59,76.563,99.59,80.894z M94.627,63.749l2.888-12.994c0-1.534-0.271-3.429-2.436-3.429
		c-6.046,0-11.55,21.115-11.55,30.59c0,2.707,0.451,4.422,1.534,4.422C88.4,82.338,92.371,73.766,94.627,63.749z"/>
	<path fill="#81869D" d="M122.722,44.862c-2.166,0-5.053-3.339-5.053-6.407c0-3.97,8.663-12.813,20.394-12.813
		c12.001,0,20.393,8.392,20.393,22.108c0,12.272-7.49,25.537-23.913,25.537c-0.361,0-0.632,0-0.993,0
		c-1.444,6.407-2.617,11.731-3.068,14.528c-0.18,0.992-1.173,1.444-2.346,1.444c-1.985,0-4.331-1.173-4.331-3.068
		c0-4.241,0.993-9.295,1.805-14.077c-1.895-0.451-2.888-1.444-2.888-2.166c0-0.451,0.451-0.812,1.354-0.812
		c0.541,0,1.173,0.09,1.985,0.361c1.624-9.746,3.97-20.664,7.851-33.749c0.361-1.354,1.444-1.895,2.707-1.895
		c2.526,0,5.775,2.166,5.775,4.422c0,0.181,0,0.451-0.09,0.632c-2.617,9.565-5.504,20.935-7.85,30.59
		c10.377-2.888,17.416-15.792,17.416-27.432c0-3.7-0.632-7.309-2.076-10.468c-2.166-1.083-4.512-1.534-6.768-1.534
		c-7.128,0-14.709,5.234-18.408,13.445C124.166,44.501,123.534,44.862,122.722,44.862z"/>
	<path fill="#81869D" d="M181.284,81.588c0,1.354,0.451,2.256,1.263,2.256c1.895,0,4.692-4.782,8.934-13.535
		c0.451-0.993,1.173-1.534,1.624-1.534c0.271,0,0.542,0.271,0.542,0.903c0,0.361-0.09,0.902-0.361,1.534
		c-1.263,3.158-6.949,17.957-13.897,17.957c-2.797,0-6.136-1.534-6.136-8.302c0-0.451,0-1.083,0.09-1.714
		c-2.978,6.136-6.407,10.016-9.294,10.016c-4.873,0-6.948-5.234-6.948-12.272c0-13.716,7.941-34.11,18.318-34.11
		c3.609,0,5.865,3.88,6.046,6.678h0.541c2.256,0,4.963,1.895,4.963,5.234c0,0.451,0,0.902-0.09,1.354
		C184.442,67.512,181.284,77.257,181.284,81.588z M176.321,64.443l2.888-12.994c0-1.534-0.271-3.429-2.436-3.429
		c-6.046,0-11.55,21.115-11.55,30.59c0,2.707,0.451,4.422,1.534,4.422C170.095,83.032,174.065,74.46,176.321,64.443z"/>
	<path fill="#81869D" d="M196.172,86.461c-0.271,1.985-1.805,2.978-3.339,2.978c-1.715,0-3.429-1.263-3.429-3.97
		c0-6.317,3.068-24.094,7.129-37.99c0.451-1.534,1.895-2.256,3.429-2.256c2.076,0,4.422,1.444,4.422,3.97
		c0,1.534-1.083,3.79-1.534,5.414c3.249-6.949,7.219-12.002,11.641-12.002c3.339,0,4.602,1.985,4.602,5.866
		c0,5.053-4.331,13.445-4.331,16.604c0,1.263,0.722,1.985,2.075,1.985c2.978,0,6.678-6.587,8.212-10.107
		c0.542-1.354,1.173-2.166,1.715-2.166c0.993,0,0.631,1.895,0.451,2.527c-1.354,5.144-6.587,13.265-12.814,13.265
		c-3.609,0-7.038-1.534-7.038-6.948c0-4.963,3.97-11.009,3.97-13.807c0-0.631-0.271-1.083-0.902-1.083
		c-3.068,0-10.468,12.904-12.814,28.154L196.172,86.461z"/>
	<path fill="#81869D" d="M227.212,42.877c1.083-4.061,2.166-7.941,3.339-11.641c0.451-1.534,1.985-2.256,3.7-2.256
		c2.256,0,4.692,1.444,4.692,4.512c0,2.256-1.354,6.226-2.346,9.836c4.422,0.361,8.573,0.632,8.573,1.895
		c0,1.263-3.339,2.166-9.926,2.888c-3.429,11.911-7.67,25.898-7.67,32.395c0,2.346,0.542,3.79,1.895,3.79
		c3.519,0,8.121-9.926,10.648-13.987c0.632-1.083,1.083-1.624,1.534-1.624c0.361,0,0.632,0.361,0.632,0.993
		c0,0.361-0.09,0.902-0.361,1.534c-1.263,3.158-7.49,17.957-15.07,17.957c-3.519,0-6.497-2.527-6.497-9.295
		c0-5.956,2.256-18.679,5.414-31.583l-2.888-0.27c-1.083-0.09-1.534-1.263-1.534-2.436c0-1.354,0.632-2.797,1.624-2.797
		C224.324,42.787,225.768,42.787,227.212,42.877z"/>
	<path fill="#81869D" d="M235.422,109.562c0-9.926,9.565-13.626,18.679-19.221c0.361-2.707,0.812-5.684,1.354-8.843
		c-2.346,4.873-5.415,7.67-9.204,7.67c-5.414,0-7.219-3.79-7.219-9.475c0-9.114,4.512-23.011,6.497-34.11
		c0.271-1.805,1.624-2.527,3.249-2.527c2.346,0,5.053,1.714,5.053,3.97c0,3.158-1.444,7.76-2.527,12.633
		c-1.805,7.941-3.7,16.423-3.7,19.942c0,2.166,0.541,3.429,1.895,3.429c4.873,0,6.678-10.467,10.648-25.898
		c1.444-6.768,2.527-11.55,2.527-11.55c0.361-1.534,1.804-2.256,3.339-2.256c2.256,0,4.782,1.444,4.782,3.519
		c0,2.436-1.444,3.429-7.219,36.546c3.609-3.339,6.948-7.49,9.655-13.085c0.451-0.993,1.173-1.624,1.624-1.624
		c0.361,0,0.542,0.271,0.542,0.902c0,0.361-0.09,0.903-0.361,1.624c-3.339,8.392-7.851,13.896-12.453,17.957
		c-4.061,21.386-10.828,29.236-17.957,29.236C240.204,118.405,235.422,114.525,235.422,109.562z M242.551,115.608
		c8.482,0,10.107-13.716,10.828-19.672c-6.407,4.061-14.167,8.392-14.167,15.611c0,1.985,1.083,3.158,2.436,3.97
		C241.919,115.608,242.19,115.608,242.551,115.608z"/>
</g>
<g>
	<path fill="#FFFFFF" d="M53.787,34.943c-2.076,0-4.422-0.18-6.768-0.361c0.271,0.451,0.271,1.263,0.09,1.804
		c-6.497,25.988-9.385,39.524-11.821,51.345c-0.361,1.625-1.714,2.347-3.068,2.347c-1.805,0-3.79-1.263-3.79-3.519
		c0-2.888,3.97-27.703,9.836-48.999c0.451-1.534,1.624-2.707,3.249-3.429c-2.707-0.27-5.414-0.361-8.122-0.361
		c-2.527,0-4.963,0.361-7.399,0.361c-1.083,0-1.534-0.632-1.534-1.444c0-2.076,2.346-5.504,4.331-5.775
		c2.436-0.361,5.053-0.451,7.761-0.451c4.692,0,9.565,0.361,14.077,0.361c2.797,0,5.504-0.542,7.851-0.542
		c1.534,0,2.256,1.805,2.256,3.79c0,2.076-0.812,4.241-2.527,4.512C56.855,34.853,55.321,34.943,53.787,34.943z"/>
	<path fill="#FFFFFF" d="M75.352,53.622c0,8.663-6.497,20.845-16.062,20.845c-1.083,0-2.256-0.18-3.429-0.542
		c0,3.971,0.361,10.828,5.955,10.828c8.573,0,13.175-9.745,15.521-13.445c0.542-0.902,0.993-1.263,1.444-1.263
		c0.361,0,0.632,0.361,0.632,0.902c0,0.361-0.09,0.812-0.271,1.263c-4.061,10.107-10.377,18.047-20.754,18.047
		c-7.761,0-10.919-7.039-10.919-15.611c0-13.445,7.76-30.861,17.235-30.861c1.985,0,4.061,0.632,5.144,1.534
		C73.638,45.772,75.352,49.201,75.352,53.622z M56.763,71.58c5.324,0,12.994-14.258,12.994-21.296c0-1.444-0.18-2.978-1.534-2.978
		c-5.143,0-11.099,13.355-12.182,24.184C56.312,71.58,56.493,71.58,56.763,71.58z"/>
	<path fill="#FFFFFF" d="M100.978,82.588c0,1.354,0.451,2.256,1.263,2.256c1.895,0,4.692-4.782,8.934-13.535
		c0.451-0.993,1.173-1.534,1.624-1.534c0.271,0,0.542,0.271,0.542,0.903c0,0.361-0.09,0.902-0.361,1.534
		c-1.263,3.158-6.948,17.957-13.897,17.957c-2.797,0-6.136-1.534-6.136-8.302c0-0.451,0-1.083,0.09-1.714
		c-2.978,6.136-6.407,10.016-9.295,10.016c-4.873,0-6.949-5.234-6.949-12.272c0-13.716,7.941-34.11,18.318-34.11
		c3.609,0,5.866,3.88,6.046,6.678h0.542c2.256,0,4.963,1.895,4.963,5.234c0,0.451,0,0.902-0.09,1.354
		C104.136,68.512,100.978,78.257,100.978,82.588z M96.015,65.443l2.888-12.994c0-1.534-0.271-3.429-2.436-3.429
		c-6.046,0-11.55,21.115-11.55,30.59c0,2.707,0.451,4.422,1.534,4.422C89.789,84.032,93.759,75.46,96.015,65.443z"/>
	<path fill="#FFFFFF" d="M124.11,46.556c-2.166,0-5.053-3.339-5.053-6.407c0-3.97,8.663-12.813,20.394-12.813
		c12.001,0,20.393,8.392,20.393,22.108c0,12.272-7.49,25.537-23.913,25.537c-0.361,0-0.632,0-0.993,0
		c-1.444,6.407-2.617,11.731-3.068,14.528c-0.18,0.992-1.173,1.444-2.346,1.444c-1.985,0-4.331-1.173-4.331-3.068
		c0-4.241,0.993-9.295,1.805-14.077c-1.895-0.451-2.888-1.444-2.888-2.166c0-0.451,0.451-0.812,1.354-0.812
		c0.541,0,1.173,0.09,1.985,0.361c1.624-9.746,3.97-20.664,7.851-33.749c0.361-1.354,1.444-1.895,2.707-1.895
		c2.526,0,5.775,2.166,5.775,4.422c0,0.181,0,0.451-0.09,0.632c-2.617,9.565-5.504,20.935-7.85,30.59
		c10.377-2.888,17.416-15.792,17.416-27.432c0-3.7-0.632-7.309-2.076-10.468c-2.166-1.083-4.512-1.534-6.768-1.534
		c-7.128,0-14.709,5.234-18.408,13.445C125.554,46.195,124.923,46.556,124.11,46.556z"/>
	<path fill="#FFFFFF" d="M182.672,83.282c0,1.354,0.451,2.256,1.263,2.256c1.895,0,4.692-4.782,8.934-13.535
		c0.451-0.993,1.173-1.534,1.624-1.534c0.271,0,0.542,0.271,0.542,0.903c0,0.361-0.09,0.902-0.361,1.534
		c-1.263,3.158-6.949,17.957-13.897,17.957c-2.797,0-6.136-1.534-6.136-8.302c0-0.451,0-1.083,0.09-1.714
		c-2.978,6.136-6.407,10.016-9.294,10.016c-4.873,0-6.948-5.234-6.948-12.272c0-13.716,7.941-34.11,18.318-34.11
		c3.609,0,5.865,3.88,6.046,6.678h0.541c2.256,0,4.963,1.895,4.963,5.234c0,0.451,0,0.902-0.09,1.354
		C185.83,69.206,182.672,78.951,182.672,83.282z M177.709,66.138l2.888-12.994c0-1.534-0.271-3.429-2.436-3.429
		c-6.046,0-11.55,21.115-11.55,30.59c0,2.707,0.451,4.422,1.534,4.422C171.483,84.726,175.453,76.154,177.709,66.138z"/>
	<path fill="#FFFFFF" d="M197.56,88.155c-0.271,1.985-1.805,2.978-3.339,2.978c-1.715,0-3.429-1.263-3.429-3.97
		c0-6.317,3.068-24.094,7.129-37.99c0.451-1.534,1.895-2.256,3.429-2.256c2.076,0,4.422,1.444,4.422,3.97
		c0,1.534-1.083,3.79-1.534,5.414c3.249-6.949,7.219-12.002,11.641-12.002c3.339,0,4.602,1.985,4.602,5.866
		c0,5.053-4.331,13.445-4.331,16.604c0,1.263,0.722,1.985,2.075,1.985c2.978,0,6.678-6.587,8.212-10.107
		c0.542-1.354,1.173-2.166,1.715-2.166c0.993,0,0.631,1.895,0.451,2.527c-1.354,5.144-6.587,13.265-12.814,13.265
		c-3.609,0-7.038-1.534-7.038-6.948c0-4.963,3.97-11.009,3.97-13.807c0-0.631-0.271-1.083-0.902-1.083
		c-3.068,0-10.468,12.904-12.814,28.154L197.56,88.155z"/>
	<path fill="#FFFFFF" d="M228.6,44.571c1.083-4.061,2.166-7.941,3.339-11.64c0.451-1.534,1.985-2.256,3.7-2.256
		c2.256,0,4.692,1.444,4.692,4.512c0,2.256-1.354,6.226-2.346,9.836c4.422,0.361,8.573,0.632,8.573,1.895
		c0,1.263-3.339,2.166-9.926,2.888c-3.429,11.911-7.67,25.898-7.67,32.395c0,2.346,0.542,3.79,1.895,3.79
		c3.519,0,8.121-9.926,10.648-13.987c0.632-1.083,1.083-1.624,1.534-1.624c0.361,0,0.632,0.361,0.632,0.993
		c0,0.361-0.09,0.902-0.361,1.534c-1.263,3.158-7.49,17.957-15.07,17.957c-3.519,0-6.497-2.527-6.497-9.295
		c0-5.956,2.256-18.679,5.414-31.583l-2.888-0.27c-1.083-0.09-1.534-1.263-1.534-2.436c0-1.354,0.632-2.797,1.624-2.797
		C225.712,44.481,227.156,44.481,228.6,44.571z"/>
	<path fill="#FFFFFF" d="M236.81,111.256c0-9.926,9.565-13.626,18.679-19.221c0.361-2.707,0.812-5.684,1.354-8.843
		c-2.346,4.873-5.415,7.67-9.204,7.67c-5.414,0-7.219-3.79-7.219-9.475c0-9.114,4.512-23.011,6.497-34.11
		c0.271-1.805,1.624-2.527,3.249-2.527c2.346,0,5.053,1.714,5.053,3.97c0,3.158-1.444,7.76-2.527,12.633
		c-1.805,7.941-3.7,16.423-3.7,19.942c0,2.166,0.541,3.429,1.895,3.429c4.873,0,6.678-10.467,10.648-25.898
		c1.444-6.768,2.527-11.55,2.527-11.55c0.361-1.534,1.804-2.256,3.339-2.256c2.256,0,4.782,1.444,4.782,3.519
		c0,2.436-1.444,3.429-7.219,36.546c3.609-3.339,6.948-7.49,9.655-13.085c0.451-0.993,1.173-1.624,1.624-1.624
		c0.361,0,0.542,0.271,0.542,0.902c0,0.361-0.09,0.903-0.361,1.624c-3.339,8.392-7.851,13.896-12.453,17.957
		c-4.061,21.386-10.828,29.236-17.957,29.236C241.593,120.099,236.81,116.219,236.81,111.256z M243.939,117.302
		c8.482,0,10.107-13.716,10.828-19.672c-6.407,4.061-14.167,8.392-14.167,15.611c0,1.985,1.083,3.158,2.436,3.97
		C243.307,117.302,243.578,117.302,243.939,117.302z"/>
</g>
<g>
	<path fill="#81869D" d="M54.713,34.533c-2.076,0-4.422-0.18-6.768-0.361c0.271,0.451,0.271,1.263,0.09,1.804
		c-6.497,25.988-9.385,39.524-11.821,51.345c-0.361,1.625-1.714,2.347-3.068,2.347c-1.805,0-3.79-1.263-3.79-3.519
		c0-2.888,3.97-27.703,9.836-48.999c0.451-1.534,1.624-2.707,3.249-3.429c-2.707-0.27-5.414-0.361-8.122-0.361
		c-2.527,0-4.963,0.361-7.399,0.361c-1.083,0-1.534-0.632-1.534-1.444c0-2.076,2.346-5.504,4.331-5.775
		c2.436-0.361,5.053-0.451,7.761-0.451c4.692,0,9.565,0.361,14.077,0.361c2.797,0,5.504-0.542,7.851-0.542
		c1.534,0,2.256,1.805,2.256,3.79c0,2.076-0.812,4.241-2.527,4.512C57.781,34.443,56.247,34.533,54.713,34.533z"/>
	<path fill="#81869D" d="M76.278,53.212c0,8.663-6.497,20.845-16.062,20.845c-1.083,0-2.256-0.18-3.429-0.542
		c0,3.971,0.361,10.828,5.955,10.828c8.573,0,13.175-9.745,15.521-13.445c0.542-0.902,0.993-1.263,1.444-1.263
		c0.361,0,0.632,0.361,0.632,0.902c0,0.361-0.09,0.812-0.271,1.263C76.007,81.908,69.69,89.849,59.313,89.849
		c-7.761,0-10.919-7.039-10.919-15.611c0-13.445,7.76-30.861,17.235-30.861c1.985,0,4.061,0.632,5.144,1.534
		C74.563,45.362,76.278,48.791,76.278,53.212z M57.689,71.169c5.324,0,12.994-14.258,12.994-21.296c0-1.444-0.18-2.978-1.534-2.978
		c-5.143,0-11.099,13.355-12.182,24.184C57.238,71.169,57.418,71.169,57.689,71.169z"/>
	<path fill="#81869D" d="M101.904,82.178c0,1.354,0.451,2.256,1.263,2.256c1.895,0,4.692-4.782,8.934-13.535
		c0.451-0.993,1.173-1.534,1.624-1.534c0.271,0,0.542,0.271,0.542,0.903c0,0.361-0.09,0.902-0.361,1.534
		c-1.263,3.158-6.948,17.957-13.897,17.957c-2.797,0-6.136-1.534-6.136-8.302c0-0.451,0-1.083,0.09-1.714
		c-2.978,6.136-6.407,10.016-9.295,10.016c-4.873,0-6.949-5.234-6.949-12.272c0-13.716,7.941-34.11,18.318-34.11
		c3.609,0,5.866,3.88,6.046,6.678h0.542c2.256,0,4.963,1.895,4.963,5.234c0,0.451,0,0.902-0.09,1.354
		C105.062,68.102,101.904,77.847,101.904,82.178z M96.941,65.033l2.888-12.994c0-1.534-0.271-3.429-2.436-3.429
		c-6.046,0-11.55,21.115-11.55,30.59c0,2.707,0.451,4.422,1.534,4.422C90.714,83.622,94.685,75.05,96.941,65.033z"/>
	<path fill="#81869D" d="M125.036,46.146c-2.166,0-5.053-3.339-5.053-6.407c0-3.97,8.663-12.813,20.394-12.813
		c12.001,0,20.393,8.392,20.393,22.108c0,12.272-7.49,25.537-23.913,25.537c-0.361,0-0.632,0-0.993,0
		c-1.444,6.407-2.617,11.731-3.068,14.528c-0.18,0.992-1.173,1.444-2.346,1.444c-1.985,0-4.331-1.173-4.331-3.068
		c0-4.241,0.993-9.295,1.805-14.077c-1.895-0.451-2.888-1.444-2.888-2.166c0-0.451,0.451-0.812,1.354-0.812
		c0.541,0,1.173,0.09,1.985,0.361c1.624-9.746,3.97-20.664,7.851-33.749c0.361-1.354,1.444-1.895,2.707-1.895
		c2.526,0,5.775,2.166,5.775,4.422c0,0.181,0,0.451-0.09,0.632c-2.617,9.565-5.504,20.935-7.85,30.59
		c10.377-2.888,17.416-15.792,17.416-27.432c0-3.7-0.632-7.309-2.076-10.468c-2.166-1.083-4.512-1.534-6.768-1.534
		c-7.128,0-14.709,5.234-18.408,13.445C126.48,45.785,125.848,46.146,125.036,46.146z"/>
	<path fill="#81869D" d="M183.597,82.872c0,1.354,0.451,2.256,1.263,2.256c1.895,0,4.692-4.782,8.934-13.535
		c0.451-0.993,1.173-1.534,1.624-1.534c0.271,0,0.542,0.271,0.542,0.903c0,0.361-0.09,0.902-0.361,1.534
		c-1.263,3.158-6.949,17.957-13.897,17.957c-2.797,0-6.136-1.534-6.136-8.302c0-0.451,0-1.083,0.09-1.714
		c-2.978,6.136-6.407,10.016-9.294,10.016c-4.873,0-6.948-5.234-6.948-12.272c0-13.716,7.941-34.11,18.318-34.11
		c3.609,0,5.865,3.88,6.046,6.678h0.541c2.256,0,4.963,1.895,4.963,5.234c0,0.451,0,0.902-0.09,1.354
		C186.756,68.796,183.597,78.541,183.597,82.872z M178.635,65.727l2.888-12.994c0-1.534-0.271-3.429-2.436-3.429
		c-6.046,0-11.55,21.115-11.55,30.59c0,2.707,0.451,4.422,1.534,4.422C172.408,84.316,176.378,75.744,178.635,65.727z"/>
	<path fill="#81869D" d="M198.485,87.745c-0.271,1.985-1.805,2.978-3.339,2.978c-1.715,0-3.429-1.263-3.429-3.97
		c0-6.317,3.068-24.094,7.129-37.99c0.451-1.534,1.895-2.256,3.429-2.256c2.076,0,4.422,1.444,4.422,3.97
		c0,1.534-1.083,3.79-1.534,5.414c3.249-6.949,7.219-12.002,11.641-12.002c3.339,0,4.602,1.985,4.602,5.866
		c0,5.053-4.331,13.445-4.331,16.604c0,1.263,0.722,1.985,2.075,1.985c2.978,0,6.678-6.587,8.212-10.107
		c0.542-1.354,1.173-2.166,1.715-2.166c0.993,0,0.631,1.895,0.451,2.527c-1.354,5.144-6.587,13.265-12.814,13.265
		c-3.609,0-7.038-1.534-7.038-6.948c0-4.963,3.97-11.009,3.97-13.807c0-0.631-0.271-1.083-0.902-1.083
		c-3.068,0-10.468,12.904-12.814,28.154L198.485,87.745z"/>
	<path fill="#81869D" d="M229.525,44.161c1.083-4.061,2.166-7.941,3.339-11.64c0.451-1.534,1.985-2.256,3.7-2.256
		c2.256,0,4.692,1.444,4.692,4.512c0,2.256-1.354,6.226-2.346,9.836c4.422,0.361,8.573,0.632,8.573,1.895
		c0,1.263-3.339,2.166-9.926,2.888c-3.429,11.911-7.67,25.898-7.67,32.395c0,2.346,0.542,3.79,1.895,3.79
		c3.519,0,8.121-9.926,10.648-13.987c0.632-1.083,1.083-1.624,1.534-1.624c0.361,0,0.632,0.361,0.632,0.993
		c0,0.361-0.09,0.902-0.361,1.534c-1.263,3.158-7.49,17.957-15.07,17.957c-3.519,0-6.497-2.527-6.497-9.295
		c0-5.956,2.256-18.679,5.414-31.583l-2.888-0.27c-1.083-0.09-1.534-1.263-1.534-2.436c0-1.354,0.632-2.797,1.624-2.797
		C226.638,44.071,228.082,44.071,229.525,44.161z"/>
	<path fill="#81869D" d="M237.736,110.846c0-9.926,9.565-13.626,18.679-19.221c0.361-2.707,0.812-5.684,1.354-8.843
		c-2.346,4.873-5.415,7.67-9.204,7.67c-5.414,0-7.219-3.79-7.219-9.475c0-9.114,4.512-23.011,6.497-34.11
		c0.271-1.805,1.624-2.527,3.249-2.527c2.346,0,5.053,1.714,5.053,3.97c0,3.158-1.444,7.76-2.527,12.633
		c-1.805,7.941-3.7,16.423-3.7,19.942c0,2.166,0.541,3.429,1.895,3.429c4.873,0,6.678-10.467,10.648-25.898
		c1.444-6.768,2.527-11.55,2.527-11.55c0.361-1.534,1.804-2.256,3.339-2.256c2.256,0,4.782,1.444,4.782,3.519
		c0,2.436-1.444,3.429-7.219,36.546c3.609-3.339,6.948-7.49,9.655-13.085c0.451-0.993,1.173-1.624,1.624-1.624
		c0.361,0,0.542,0.271,0.542,0.902c0,0.361-0.09,0.903-0.361,1.624c-3.339,8.392-7.851,13.896-12.453,17.957
		c-4.061,21.386-10.828,29.236-17.957,29.236C242.518,119.689,237.736,115.809,237.736,110.846z M244.864,116.892
		c8.482,0,10.107-13.716,10.828-19.672c-6.407,4.061-14.167,8.392-14.167,15.611c0,1.985,1.083,3.158,2.436,3.97
		C244.233,116.892,244.504,116.892,244.864,116.892z"/>
</g>
<path fill="#F9B29E" d="M229.317,110.247l39.57-6.872c0,0,0.938,0.236,0.908,0.64c0,0,4.818-6.119,9.54-2.454
	c0,0,6.081,6.319-1.354,16.879c0,0-1.982,2.935-8.599,5.58c0,0-2.318,1.001-2.726,2.666c0,0-0.72,1.022-2.086-0.535
	c0,0-1.153,1.396-3.34,2.573c0,0,2.258,2.099,1.972,2.747l-18.962,3.293c0,0,0.11-2.81,1.317-3.318c0,0-5.533,0.263-9.326-6.653
	c0,0-1.956-3.049-3.501-6.867c0,0-1.537-2.623-3.257-3.919C229.472,114.008,227.613,111.341,229.317,110.247z"/>
<path fill="#FFFFFF" d="M266.404,122.942c0,0,6.705-1.563,9.537-5.344c0,0,3.613-2.685,2.868-9.742c0,0-1.601-5.777-6.173-3.263
	c0,0-3.988,1.141-4.422,10.261C268.214,114.854,267.682,120.403,266.404,122.942z"/>
</svg>
